<?xml version="1.0" encoding="UTF-8"?>
<svg version="1.1" xmlns="http://www.w3.org/2000/svg" width="512" height="512">
<path d="M0,0 L8,0 L16,7 L40,31 L80,32 L84,36 L85,74 L94,83 L102,90 L109,97 L115,102 L116,104 L116,112 L111,118 L103,125 L96,132 L88,139 L85,142 L84,180 L80,184 L40,185 L15,210 L20,218 L20,230 L-8,348 L-17,384 L-21,389 L-26,392 L-276,392 L-276,416 L-37,416 L-29,420 L-22,428 L-20,433 L-20,447 L-24,455 L-32,462 L-39,465 L-36,473 L-36,487 L-40,497 L-47,505 L-52,509 L-61,512 L-76,512 L-85,508 L-92,503 L-98,494 L-100,488 L-100,472 L-98,466 L-246,466 L-244,472 L-244,488 L-248,497 L-252,503 L-262,510 L-268,512 L-283,512 L-293,508 L-301,501 L-306,493 L-308,487 L-308,472 L-304,462 L-313,456 L-320,448 L-324,438 L-324,192 L-386,192 L-392,188 L-396,182 L-396,146 L-392,140 L-386,136 L-318,136 L-312,140 L-310,144 L-299,144 L-287,150 L-280,158 L-276,167 L-276,208 L-260,208 L-260,138 L-256,132 L-250,128 L-217,128 L-216,123 L-211,117 L-187,104 L-164,91 L-149,83 L-140,82 L-132,86 L-126,94 L-112,119 L-103,134 L-103,136 L-84,135 L-97,123 L-107,114 L-108,112 L-108,104 L-103,98 L-95,91 L-88,84 L-80,77 L-77,74 L-76,36 L-72,32 L-32,31 L-2,1 Z M-244,144 L-244,208 L-196,208 L-195,170 L-191,163 L-193,160 L-202,159 L-206,154 L-212,144 Z M-380,152 L-380,176 L-324,176 L-324,152 Z M-126,152 L-128,160 L-94,161 L-88,165 L-85,170 L-84,208 L-58,208 L-51,187 L-51,184 L-72,183 L-75,180 L-76,152 Z M-308,160 L-308,429 L-306,437 L-302,443 L-295,447 L-291,448 L-43,448 L-38,445 L-37,443 L-37,437 L-41,433 L-277,432 L-286,429 L-290,424 L-291,422 L-292,175 L-294,168 L-299,163 L-302,161 Z M-180,176 L-180,208 L-100,208 L-100,176 Z M-33,185 L-40,206 L-40,208 L-9,208 L-15,201 L-31,185 Z M-195,224 L-199,239 L-204,260 L-204,264 L-150,264 L-146,249 L-141,228 L-141,224 Z M-51,224 L-55,239 L-60,260 L-60,264 L-6,264 L3,228 L3,224 Z M-276,280 L-276,320 L-235,320 L-232,308 L-229,305 L-223,304 L-222,296 L-226,292 L-226,280 Z M-136,280 L-139,289 L-146,320 L-91,320 L-82,283 L-82,280 Z M-222,336 L-231,373 L-231,376 L-177,376 L-174,367 L-167,336 Z M-78,336 L-87,373 L-87,376 L-33,376 L-30,367 L-23,336 Z " fill="#69130D" transform="translate(396,0)"/>
<path d="M0,0 L4,2 L28,26 L30,27 L65,28 L66,60 L69,65 L84,79 L93,87 L91,91 L81,100 L67,113 L66,115 L65,148 L30,149 L22,156 L2,176 L-2,174 L-26,150 L-29,149 L-63,148 L-64,115 L-71,107 L-79,100 L-86,93 L-91,89 L-89,85 L-79,76 L-65,63 L-64,60 L-63,28 L-29,27 L-24,24 Z " fill="#DF1413" transform="translate(399,20)"/>
<path d="M0,0 L4,4 L18,29 L22,37 L13,38 L7,42 L3,48 L-1,60 L-2,61 L-41,62 L-47,65 L-50,60 L-47,57 L-47,49 L-57,33 L-54,30 L-27,15 Z " fill="#DF1413" transform="translate(252,99)"/>
<path d="M0,0 L64,0 L62,10 L55,40 L0,40 Z " fill="#DF1413" transform="translate(120,224)"/>
<path d="M0,0 L55,0 L54,10 L47,38 L46,40 L-9,40 L-9,28 L-14,24 L-13,16 L-4,13 Z " fill="#DF1313" transform="translate(187,280)"/>
<path d="M0,0 L8,1 L11,5 L10,13 L-80,103 L-88,104 L-92,101 L-93,93 L-86,85 L-2,1 Z " fill="#6B140E" transform="translate(437,56)"/>
<path d="M0,0 L55,0 L53,13 L47,38 L46,40 L-9,40 L-8,30 L-1,2 Z " fill="#DF1413" transform="translate(246,336)"/>
<path d="M0,0 L56,0 L54,10 L47,40 L-9,40 L-7,30 Z " fill="#DF1413" transform="translate(272,224)"/>
<path d="M0,0 L55,0 L54,10 L47,38 L46,40 L-9,40 L-7,27 L-1,2 Z " fill="#DF1413" transform="translate(331,280)"/>
<path d="M0,0 L37,0 L35,13 L29,38 L28,40 L0,40 Z " fill="#DF1413" transform="translate(120,336)"/>
<path d="M0,0 L9,0 L18,4 L24,12 L25,15 L25,24 L21,33 L15,38 L9,40 L0,40 L-8,36 L-13,30 L-15,24 L-15,15 L-11,7 L-3,1 Z " fill="#6B140E" transform="translate(423,112)"/>
<path d="M0,0 L9,0 L18,4 L24,12 L25,15 L25,24 L21,33 L15,38 L9,40 L0,40 L-8,36 L-13,30 L-15,24 L-15,15 L-11,7 L-3,1 Z " fill="#6B140E" transform="translate(367,56)"/>
<path d="M0,0 L9,0 L15,4 L19,9 L20,11 L20,20 L16,27 L10,31 L7,32 L0,32 L-7,28 L-11,22 L-12,19 L-12,12 L-8,5 L-3,1 Z " fill="#DD1413" transform="translate(116,464)"/>
<path d="M0,0 L9,0 L17,5 L21,12 L21,19 L17,27 L11,31 L8,32 L1,32 L-6,28 L-10,23 L-11,20 L-11,11 L-7,5 L-2,1 Z " fill="#DD1413" transform="translate(323,464)"/>
<path d="M0,0 L5,1 L6,6 L4,8 L-1,7 L-2,2 Z " fill="#D81413" transform="translate(426,128)"/>
<path d="M0,0 L5,1 L6,6 L4,8 L-1,7 L-2,2 Z " fill="#D81413" transform="translate(370,72)"/>
</svg>
